<svg width="19" height="19" viewBox="0 0 19 19" fill="none" xmlns="http://www.w3.org/2000/svg">
<path d="M0 8.89453C0 9.35156 0.175781 9.77344 0.492188 10.0898L7.91016 17.5078C8.57812 18.1758 9.66797 18.1758 10.3008 17.5078L17.4727 10.3359C18.1406 9.70312 18.1406 8.61328 17.4727 7.94531L10.0547 0.527344C9.73828 0.210938 9.31641 0 8.85938 0H1.6875C0.738281 0 0 0.773438 0 1.6875V8.89453ZM3.9375 2.25C4.85156 2.25 5.625 3.02344 5.625 3.9375C5.625 4.88672 4.85156 5.625 3.9375 5.625C2.98828 5.625 2.25 4.88672 2.25 3.9375C2.25 3.02344 2.98828 2.25 3.9375 2.25Z" fill="white"/>
</svg>
